/* XPM */
static char * pacman_xpm[] = {
"100 25 255 2",
"  	c None",
". 	c #F4E504",
"+ 	c #F8E903",
"@ 	c #F8E802",
"# 	c #F6E703",
"$ 	c #DE0D17",
"% 	c #F0AC32",
"& 	c #E38CB6",
"* 	c #55BBC7",
"= 	c #F9EA04",
"- 	c #FEED03",
"; 	c #FEED01",
"> 	c #FEED02",
", 	c #FCEC02",
"' 	c #E40E18",
") 	c #E50E18",
"! 	c #E30E18",
"~ 	c #F7B134",
"{ 	c #F9B234",
"] 	c #F9B235",
"^ 	c #F8B234",
"/ 	c #E991BD",
"( 	c #EA91BD",
"_ 	c #E990BC",
": 	c #57BCC9",
"< 	c #58C0CD",
"[ 	c #57BCCA",
"} 	c #FDED02",
"| 	c #F7E805",
"1 	c #E00E18",
"2 	c #F1AD33",
"3 	c #F4AF33",
"4 	c #E68EB9",
"5 	c #E38DB7",
"6 	c #58BFCC",
"7 	c #F5E703",
"8 	c #DF0E18",
"9 	c #E48EB8",
"0 	c #57BFCC",
"a 	c #58BFCD",
"b 	c #FBEC02",
"c 	c #E5121D",
"d 	c #E41019",
"e 	c #E4111B",
"f 	c #E4121C",
"g 	c #F8B334",
"h 	c #F9B336",
"i 	c #EA92BD",
"j 	c #55BAC7",
"k 	c #5AC0CD",
"l 	c #5BC0CD",
"m 	c #56BCC9",
"n 	c #F9E903",
"o 	c #DE0E18",
"p 	c #F0B0B0",
"q 	c #FCF8F8",
"r 	c #FAEFEF",
"s 	c #EA8383",
"t 	c #EB9191",
"u 	c #FCF3F3",
"v 	c #FBF6F5",
"w 	c #EEA4A4",
"x 	c #FACD96",
"y 	c #FDF9F4",
"z 	c #FCFAF5",
"A 	c #FAD4A6",
"B 	c #F9C279",
"C 	c #FDF5EB",
"D 	c #FEFCFA",
"E 	c #FAE0C2",
"F 	c #F1AD34",
"G 	c #E48DB8",
"H 	c #F3C9DC",
"I 	c #FCFAFB",
"J 	c #FBF6F8",
"K 	c #F0B7D1",
"L 	c #EFB7D1",
"M 	c #FDF6F9",
"N 	c #FDFAFB",
"O 	c #F2C8DB",
"P 	c #65C3CF",
"Q 	c #DCEFF1",
"R 	c #FDFDFD",
"S 	c #E0F0F2",
"T 	c #6DC5D1",
"U 	c #C9E6EA",
"V 	c #FBFDFE",
"W 	c #ECF5F7",
"X 	c #89CDD7",
"Y 	c #FAEA03",
"Z 	c #E75759",
"` 	c #FDFCFC",
" .	c #EFEFEF",
"..	c #6F6F6F",
"+.	c #C9ADAD",
"@.	c #E40F19",
"#.	c #FCFCFC",
"$.	c #838383",
"%.	c #B2AEAD",
"&.	c #E03B3F",
"*.	c #F3AF34",
"=.	c #FDF8F1",
"-.	c #818181",
";.	c #B4B2AE",
">.	c #F9B645",
",.	c #FCEBD7",
"'.	c #FEFEFE",
").	c #A5A5A5",
"!.	c #929291",
"~.	c #F7C78A",
"{.	c #E991BC",
"].	c #EC9CC2",
"^.	c #FEFDFD",
"/.	c #F2F2F2",
"(.	c #717171",
"_.	c #C8BCC1",
":.	c #EA91BC",
"<.	c #FBF2F6",
"[.	c #888888",
"}.	c #ADACAD",
"|.	c #E79DC1",
"1.	c #B4DCE3",
"2.	c #FFFFFF",
"3.	c #CFCFCF",
"4.	c #6E6F6F",
"5.	c #ABD1D6",
"6.	c #90D0D9",
"7.	c #E5E5E5",
"8.	c #6A6A6A",
"9.	c #B4CACE",
"0.	c #F4E603",
"a.	c #E85B5D",
"b.	c #EBEBEB",
"c.	c #434443",
"d.	c #C0A3A5",
"e.	c #FAF1F1",
"f.	c #FBFBFB",
"g.	c #636464",
"h.	c #A49E9E",
"i.	c #E23C40",
"j.	c #F5B034",
"k.	c #FDF9F3",
"l.	c #FAFAFA",
"m.	c #626362",
"n.	c #A5A39F",
"o.	c #F9B646",
"p.	c #FCECDB",
"q.	c #919191",
"r.	c #777978",
"s.	c #FAC888",
"t.	c #EB91BD",
"u.	c #EC9EC3",
"v.	c #FEFDFE",
"w.	c #EFF0EF",
"x.	c #484949",
"y.	c #BDB1B6",
"z.	c #FBF3F7",
"A.	c #6B6B6B",
"B.	c #9B9C9C",
"C.	c #E99EC2",
"D.	c #B6DEE4",
"E.	c #C5C6C6",
"F.	c #434444",
"G.	c #A8CDD2",
"H.	c #92D0DA",
"I.	c #DFDFDF",
"J.	c #393939",
"K.	c #AEC4C8",
"L.	c #F1B6B6",
"M.	c #FDFBFB",
"N.	c #FBF3F2",
"O.	c #EB8889",
"P.	c #ED9797",
"Q.	c #FCF6F6",
"R.	c #FCF9F9",
"S.	c #EEA9A9",
"T.	c #DF0D18",
"U.	c #F5B133",
"V.	c #FACF9C",
"W.	c #FEFBF7",
"X.	c #FDFBF8",
"Y.	c #FAD6AB",
"Z.	c #FAC47D",
"`.	c #FDF7F0",
" +	c #FAE2C7",
".+	c #F3CDDE",
"++	c #FEFCFD",
"@+	c #FBF8FA",
"#+	c #F0BAD3",
"$+	c #F0BBD3",
"%+	c #FDF9FB",
"&+	c #F2CCDE",
"*+	c #E790BB",
"=+	c #67C4D0",
"-+	c #E1F0F3",
";+	c #E5F2F4",
">+	c #70C6D2",
",+	c #59C0CD",
"'+	c #CFE8EC",
")+	c #FDFEFE",
"!+	c #F0F7F8",
"~+	c #8BCED8",
"{+	c #F5E502",
"]+	c #E42A2E",
"^+	c #E41D24",
"/+	c #E42127",
"(+	c #E4262B",
"_+	c #DF0D17",
":+	c #F6B133",
"<+	c #F9B43D",
"[+	c #FAB441",
"}+	c #F9B338",
"|+	c #F9B233",
"1+	c #EB90BE",
"2+	c #EA95BF",
"3+	c #EA94BE",
"4+	c #EA93BE",
"5+	c #EB95BF",
"6+	c #E690BB",
"7+	c #65C3D0",
"8+	c #63C3CF",
"9+	c #FAEA02",
"0+	c #F3E403",
"a+	c #FBEB03",
"b+	c #FDEC03",
"c+	c #F8E803",
"d+	c #E20E18",
"e+	c #DB0D18",
"f+	c #EEAC33",
"g+	c #F6B034",
"h+	c #F3AF33",
"i+	c #F8B134",
"j+	c #F9B333",
"k+	c #E68EBA",
"l+	c #E78FBB",
"m+	c #E28DB7",
"n+	c #E78FBA",
"o+	c #57BECB",
"p+	c #57BDCA",
"q+	c #56BBC8",
"r+	c #FBEB02",
"s+	c #F3E504",
"t+	c #DD0E18",
"u+	c #DE0D18",
"v+	c #F2AE34",
"w+	c #F9B334",
"x+	c #F4AF34",
"y+	c #F6B134",
"z+	c #E890BB",
"A+	c #E38EB8",
"B+	c #E58FB9",
"C+	c #58C0CE",
"D+	c #F6E804",
"E+	c #FCEC01",
"F+	c #FDED01",
"                                                                                                                                                                                                        ",
"                                                                                                                                                                                                        ",
"                                                                                                                                                                                                        ",
"                                                                                                                                                                                                        ",
"              . + @ @ #                                       $                                     %                                       &                                       *                   ",
"          = - ; ; ; ; ; > ,                             ' ' ' ' ' ) !                         ~ { ] { { { ^                           / ( ( ( ( ( _                         : < < < < < < [             ",
"        } ; ; ; ; ; ; ; ; ; > |                     1 ' ' ' ' ' ' ' ' '                   2 { { { { { { { { { 3                   4 ( ( ( ( ( ( ( ( ( 5                   6 < < < < < < < < <           ",
"      } ; ; ; ; ; ; ; ; ; ; ; > 7                 8 ' ' ' ' ' ' ' ' ' ' '                 { { { { { { { { { { { 2               9 ( ( ( ( ( ( ( ( ( ( (                 0 < < < < < < < < < < a         ",
"    b ; ; ; ; ; ; ; ; ; ; ; ; ; >                 ' ' ' ' c d ' ' ' ' e f '             ] { { { g h { { { { { h {               ( ( ( ( i ( ( ( ( ( ( i (             j < < < < k < < < < < l < m       ",
"    ; ; ; ; ; ; ; ; ; ; ; ; ; ; > n             o ' ' ' p q r s ' ' t u v w             { { { x y z A { { B C D E F           G ( ( ( H I J K ( ( L M N O             < < < P Q R S T < < U V W X       ",
"  Y ; ; ; ; ; ; ; ; ; ; ; > ; +                 ' ' ' Z `  ...+.' @.r #.$.%.&.        *.{ { { =.#.-.;.>.{ ,.'.).!.~.          {.( ( ].^./.(._.( :.<.R [.}.|.          < < < 1.2.3.4.5.< 6.'.7.8.9.      ",
"  ; ; ; ; ; ; ; ; ; ; ; , 0.                    ' ' ' a.R b.c.d.' @.e.f.g.h.i.        j.{ { { k.l.m.n.o.{ p.'.q.r.s.          t.( ( u.v.w.x.y.( ( z.R A.B.C.          < < < D.2.E.F.G.< H.'.I.J.K.      ",
"  ; ; ; ; ; ; ; ; ; +                           ! ' ' ! L.M.N.O.' ' P.Q.R.S.T.        U.{ { { V.W.X.Y.{ { Z.`.^. +g           ( ( ( ( .+++@+#+( ( $+%+#.&+*+          < < < =+-+'.;+>+< ,+'+)+!+~+      ",
"  ; ; ; ; ; ; ; ; ; ; Y {+                      ! ' ' ' ' ]+^+' ' ' ' /+(+' _+        :+{ { { { <+[+{ { { { }+o.{ |+          1+( ( ( ( 2+3+( ( ( ( 4+5+( 6+          < < < < < 7+< < < < < 8+k <       ",
"  ; ; ; ; ; ; ; ; ; ; ; ; > > 9+0+              ! ' ' ' ' ' ' ' ' ' ' ' ' ' _+        :+{ { { { { { { { { { { { { |+          1+( ( ( ( ( ( ( ( ( ( ( ( ( 6+          < < < < < < < < < < < < < <       ",
"  a+; ; ; ; ; ; ; ; ; ; ; ; ; ; ; >             ! ' ' ' ' ' ' ' ' ' ' ' ' ' _+        :+{ { { { { { { { { { { { { |+          1+( ( ( ( ( ( ( ( ( ( ( ( ( 6+          < < < < < < < < < < < < < <       ",
"    ; ; ; ; ; ; ; ; ; ; ; ; ; ; ; b             ! ' ' ' ' ' ' ' ' ' ' ' ' ' _+        :+{ { { { { { { { { { { { { |+          1+( ( ( ( ( ( ( ( ( ( ( ( ( 6+          < < < < < < < < < < < < < <       ",
"    b+; ; ; ; ; ; ; ; ; ; ; ; ; ;               ! ' ' ' ' ' ' ' ' ' ' ' ' ' _+        :+{ { { { { { { { { { { { { |+          1+( ( ( ( ( ( ( ( ( ( ( ( ( 6+          < < < < < < < < < < < < < <       ",
"      ; ; ; ; ; ; ; ; ; ; ; ; ; c+              ! ' ' ' ' ' ' ' ' ' ' ' ' ' _+        :+{ { { { { { { { { { { { { |+          ( ( ( ( ( ( ( ( ( ( ( ( ( ( 6+          < < < < < < < < < < < < < <       ",
"        > ; ; ; ; ; ; ; ; ; ; n                 ' '     ' ' 8   d+' ' e+  ' 8         j.{ f+  { { g+  h+{ { *.  i+j+          ( (     ( ( k+  l+( ( m+  ( n+          < o+  p+< <     < < 0   q+<       ",
"          r+; ; ; ; ; ; ; > s+                  !       o d+      ' t+      u+        v+        w+      j.x+      y+          z+      5 _       _ A+      B+          6       0         C+      p+      ",
"              D+E+; F+n                                                                                                                                                                                 ",
"                                                                                                                                                                                                        ",
"                                                                                                                                                                                                        ",
"                                                                                                                                                                                                        "};
